<svg xmlns="http://www.w3.org/2000/svg" width="512" height="512"><path d="M256 0C115.39 0 0 115.39 0 256c0 46.406 12.512 91.582 36.238 131.105L0 512l124.895-36.238C164.418 499.488 209.594 512 256 512c140.61 0 256-115.39 256-256S396.61 0 256 0zm160.055 364.168l-11.91 11.91c-16.852 16.852-55.606 15.516-80.508 10.707-82.801-15.992-179.336-109.562-197.953-190.594-9.22-40.14-4.13-75.039 9.183-88.355l11.91-11.91c6.575-6.57 17.254-6.563 23.82 0l47.65 47.652c3.179 3.18 4.921 7.395 4.921 11.906s-1.742 8.73-4.922 11.899l-11.906 11.922c-13.125 13.156-13.125 34.527 0 47.652l78.683 77.648c13.164 13.165 34.47 13.18 47.653 0l11.91-11.906c6.148-6.183 17.633-6.203 23.832 0l47.637 47.637c6.468 6.441 6.715 17.113 0 23.832zm0 0" fill="#3949ab"/></svg>